<svg viewBox="0 0 240 310" width="240" height="310" xmlns="http://www.w3.org/2000/svg" style="filter:drop-shadow(0 10px 16px rgba(30,40,80,.25))">
      <defs>
        <linearGradient id="p0-hair" x1="0" y1="0" x2="0" y2="1">
          <stop offset="0" stop-color="#6b93ea"/><stop offset="0.35" stop-color="#3f63cc"/><stop offset="1" stop-color="#8fbaff"/>
        </linearGradient>
        <linearGradient id="p0-back" x1="0" y1="0" x2="0" y2="1">
          <stop offset="0" stop-color="#33509f"/><stop offset="1" stop-color="#5d86dd"/>
        </linearGradient>
        <linearGradient id="p0-iris" x1="0" y1="0" x2="0" y2="1">
          <stop offset="0" stop-color="#17306e"/><stop offset="0.55" stop-color="#3f7fd8"/><stop offset="1" stop-color="#a6d4ff"/>
        </linearGradient>
        <linearGradient id="p0-skin" x1="0" y1="0" x2="0" y2="1">
          <stop offset="0" stop-color="#fff1e6"/><stop offset="1" stop-color="#ffdcc4"/>
        </linearGradient>
        <linearGradient id="p0-dress" x1="0" y1="0" x2="0" y2="1">
          <stop offset="0" stop-color="#2b3a64"/><stop offset="1" stop-color="#141c36"/>
        </linearGradient>
        <linearGradient id="p0-apron" x1="0" y1="0" x2="0" y2="1">
          <stop offset="0" stop-color="#ffffff"/><stop offset="1" stop-color="#e4ebff"/>
        </linearGradient>
        <linearGradient id="p0-fin" x1="0" y1="0" x2="1" y2="1">
          <stop offset="0" stop-color="#a9ccff"/><stop offset="1" stop-color="#3f63cc"/>
        </linearGradient>
        <radialGradient id="p0-blush">
          <stop offset="0" stop-color="#ffb3c6" stop-opacity=".9"/><stop offset="1" stop-color="#ffb3c6" stop-opacity="0"/>
        </radialGradient>
      </defs>

      <!-- 鲸鱼尾巴 -->
      <path d="M20 254 Q52 216 90 248 Q82 266 60 278 Q42 274 30 286 Q14 270 20 254 Z" fill="url(#p0-fin)" stroke="#1b3070" stroke-width="2.4" stroke-linejoin="round"/>
      <path d="M38 264 Q56 244 74 258" stroke="#d6e8ff" stroke-width="2.4" fill="none" stroke-linecap="round" opacity=".85"/>

      <!-- 后发 -->
      <ellipse cx="120" cy="116" rx="70" ry="68" fill="url(#p0-back)" stroke="#22397e" stroke-width="2.4"/>
      <path d="M54 142 Q42 228 60 292 L98 292 Q78 226 86 142 Z" fill="url(#p0-back)" stroke="#22397e" stroke-width="2.4" stroke-linejoin="round"/>
      <path d="M186 142 Q198 228 180 292 L142 292 Q162 226 154 142 Z" fill="url(#p0-back)" stroke="#22397e" stroke-width="2.4" stroke-linejoin="round"/>

      <!-- 脖子 -->
      <path d="M110 156 L130 156 L130 182 L110 182 Z" fill="#f0c1a6"/>

      <!-- 女仆裙 -->
      <path d="M82 176 Q120 162 158 176 L172 280 Q120 300 68 280 Z" fill="url(#p0-dress)" stroke="#0e1730" stroke-width="2.4" stroke-linejoin="round"/>
      <path d="M82 176 Q120 162 158 176 L160 194 Q120 182 80 194 Z" fill="#0b1226" opacity=".45"/>
      <path d="M68 280 Q77 293 86 281 Q95 293 104 281 Q113 293 122 281 Q131 293 140 281 Q149 293 158 281 Q166 293 172 280 L172 286 Q120 306 68 286 Z" fill="#f7faff" stroke="#c6d2ee" stroke-width="1.6" stroke-linejoin="round"/>

      <!-- 白围裙 + 鲸鱼徽记 -->
      <path d="M100 174 L140 174 L148 274 Q120 284 92 274 Z" fill="url(#p0-apron)" stroke="#c6d2ee" stroke-width="2" stroke-linejoin="round"/>
      <path d="M100 174 L140 174 L141 190 L99 190 Z" fill="#dde5f8" opacity=".8"/>
      <path d="M92 274 Q120 284 148 274" stroke="#d4af6a" stroke-width="3" fill="none"/>
      <ellipse cx="120" cy="236" rx="14" ry="10" fill="#4370d6" stroke="#1b3070" stroke-width="1.2"/>
      <path d="M131 236 l11 -5 -3 10 z" fill="#4370d6" stroke="#1b3070" stroke-width="1.2" stroke-linejoin="round"/>
      <circle cx="113" cy="233" r="2" fill="#fff"/>
      <path d="M120 224 q4 -7 1 -12" stroke="#9cc2ff" stroke-width="2" fill="none" stroke-linecap="round"/>

      <!-- 手臂（画在鬓发之后，让手露出来） -->
      <path d="M84 186 Q70 210 76 236 Q88 242 96 234 Q88 210 96 190 Z" fill="url(#p0-dress)" stroke="#0e1730" stroke-width="2" stroke-linejoin="round"/>
      <ellipse cx="78" cy="238" rx="9.5" ry="8" fill="url(#p0-skin)" stroke="#e0b49a" stroke-width="1.6"/>
      <path d="M156 186 Q170 210 164 236 Q152 242 144 234 Q152 210 144 190 Z" fill="url(#p0-dress)" stroke="#0e1730" stroke-width="2" stroke-linejoin="round"/>
      <ellipse cx="162" cy="238" rx="9.5" ry="8" fill="url(#p0-skin)" stroke="#e0b49a" stroke-width="1.6"/>

      <!-- 脸 -->
      <ellipse cx="120" cy="118" rx="46" ry="44" fill="url(#p0-skin)" stroke="#e0b49a" stroke-width="1.6"/>
      <path d="M76 106 Q120 126 164 106 Q158 84 120 78 Q82 84 76 106 Z" fill="#eab99e" opacity=".42"/>

      <!-- 刘海 + 发丝高光 -->
      <path d="M72 122 Q64 56 120 50 Q176 56 168 122 Q166 104 156 112 Q154 90 142 106 Q136 84 126 104 Q120 86 114 104 Q104 84 98 106 Q86 90 84 112 Q74 104 72 122 Z" fill="url(#p0-hair)" stroke="#22397e" stroke-width="2.4" stroke-linejoin="round"/>
      <path d="M88 80 Q104 68 122 68 Q142 68 156 80 Q140 76 120 76 Q100 76 88 80 Z" fill="#c6dcff" opacity=".75"/>
      <path d="M104 96 Q112 88 120 96" stroke="#22397e" stroke-width="1.6" fill="none" opacity=".5"/>

      <!-- 鬓发 -->
      <path d="M70 114 Q58 178 74 246 L90 246 Q78 178 86 114 Q78 120 70 114 Z" fill="url(#p0-hair)" stroke="#22397e" stroke-width="2.4" stroke-linejoin="round"/>
      <path d="M170 114 Q182 178 166 246 L150 246 Q162 178 154 114 Q162 120 170 114 Z" fill="url(#p0-hair)" stroke="#22397e" stroke-width="2.4" stroke-linejoin="round"/>

      <!-- 发丝细节 -->
      <path d="M80 152 Q74 208 84 254" stroke="#22397e" stroke-width="1.5" fill="none" opacity=".4"/>
      <path d="M160 152 Q166 208 156 254" stroke="#22397e" stroke-width="1.5" fill="none" opacity=".4"/>
      <path d="M98 106 Q102 88 108 76" stroke="#22397e" stroke-width="1.4" fill="none" opacity=".38"/>
      <path d="M142 106 Q138 88 132 76" stroke="#22397e" stroke-width="1.4" fill="none" opacity=".38"/>

      <!-- 手臂（画在鬓发之后，让手露出来） -->
      <path d="M84 186 Q70 210 76 236 Q88 242 96 234 Q88 210 96 190 Z" fill="url(#p0-dress)" stroke="#0e1730" stroke-width="2" stroke-linejoin="round"/>
      <ellipse cx="78" cy="238" rx="9.5" ry="8" fill="url(#p0-skin)" stroke="#e0b49a" stroke-width="1.6"/>
      <path d="M156 186 Q170 210 164 236 Q152 242 144 234 Q152 210 144 190 Z" fill="url(#p0-dress)" stroke="#0e1730" stroke-width="2" stroke-linejoin="round"/>
      <ellipse cx="162" cy="238" rx="9.5" ry="8" fill="url(#p0-skin)" stroke="#e0b49a" stroke-width="1.6"/>

      <!-- 鲸鱼鳍耳饰 -->
      <path d="M70 116 Q40 100 31 118 Q41 133 62 137 Q68 127 70 116 Z" fill="url(#p0-fin)" stroke="#1b3070" stroke-width="2.4" stroke-linejoin="round"/>
      <path d="M170 116 Q200 100 209 118 Q199 133 178 137 Q172 127 170 116 Z" fill="url(#p0-fin)" stroke="#1b3070" stroke-width="2.4" stroke-linejoin="round"/>
      <path d="M64 120 Q48 115 40 120" stroke="#dbe9ff" stroke-width="2" fill="none" stroke-linecap="round"/>
      <path d="M176 120 Q192 115 200 120" stroke="#dbe9ff" stroke-width="2" fill="none" stroke-linecap="round"/>

      <!-- 眉毛 -->
      <path d="M89 103 Q100 98 110 102" stroke="#3f63cc" stroke-width="2.6" fill="none" stroke-linecap="round"/>
      <path d="M130 102 Q140 98 151 103" stroke="#3f63cc" stroke-width="2.6" fill="none" stroke-linecap="round"/>

      <!-- 眼睛 -->
      
      <ellipse cx="100" cy="126" rx="13" ry="16" fill="#fdfdff" stroke="#c8d3e8" stroke-width="1"/>
      <ellipse cx="100" cy="128" rx="10.4" ry="13" fill="url(#p0-iris)"/>
      <ellipse cx="100" cy="128" rx="4.6" ry="6.4" fill="#101c40"/>
      <circle cx="104" cy="121" r="4.4" fill="#fff"/>
      <circle cx="95.5" cy="133" r="2.2" fill="#fff" opacity=".9"/>
      <path d="M92 136 Q100 142 108 136" stroke="#cfe8ff" stroke-width="2" fill="none" opacity=".85"/>
      <path d="M86 124 Q93 107 106 107 Q114 107 115 115" stroke="#1a2647" stroke-width="4.6" fill="none" stroke-linecap="round"/>
      <path d="M83 118 Q79 112 75 109" stroke="#1a2647" stroke-width="3.2" fill="none" stroke-linecap="round"/>
      <path d="M90 139 Q100 143 111 138" stroke="#46567e" stroke-width="1.8" fill="none" stroke-linecap="round"/>
      <ellipse cx="140" cy="126" rx="13" ry="16" fill="#fdfdff" stroke="#c8d3e8" stroke-width="1"/>
      <ellipse cx="140" cy="128" rx="10.4" ry="13" fill="url(#p0-iris)"/>
      <ellipse cx="140" cy="128" rx="4.6" ry="6.4" fill="#101c40"/>
      <circle cx="144" cy="121" r="4.4" fill="#fff"/>
      <circle cx="135.5" cy="133" r="2.2" fill="#fff" opacity=".9"/>
      <path d="M132 136 Q140 142 148 136" stroke="#cfe8ff" stroke-width="2" fill="none" opacity=".85"/>
      <path d="M125 115 Q126 107 134 107 Q147 107 154 124" stroke="#1a2647" stroke-width="4.6" fill="none" stroke-linecap="round"/>
      <path d="M157 118 Q161 112 165 109" stroke="#1a2647" stroke-width="3.2" fill="none" stroke-linecap="round"/>
      <path d="M129 138 Q140 143 150 139" stroke="#46567e" stroke-width="1.8" fill="none" stroke-linecap="round"/>
      

      <!-- 腮红 -->
      <ellipse cx="79" cy="141" rx="13" ry="8.5" fill="url(#p0-blush)"/>
      <ellipse cx="161" cy="141" rx="13" ry="8.5" fill="url(#p0-blush)"/>
      <path d="M113 150 Q116.5 147.5 120 151 Q123.5 147.5 127 150" stroke="#8a5560" stroke-width="2.6" fill="none" stroke-linecap="round"/>

      <!-- 领口黑蝴蝶结 -->
      <path d="M107 184 L92 172 L107 192 Z" fill="#15192c" stroke="#050813" stroke-width="1.2" stroke-linejoin="round"/>
      <path d="M133 184 L148 172 L133 192 Z" fill="#15192c" stroke="#050813" stroke-width="1.2" stroke-linejoin="round"/>
      <circle cx="120" cy="184" r="5.5" fill="#20263f" stroke="#050813" stroke-width="1.2"/>

      <!-- 女仆头饰（白色荷叶边） + 蝴蝶结 -->
      <path d="M62 80 Q120 40 178 80 L178 86 Q170 98 160 88 Q150 100 140 90 Q130 102 120 92 Q110 102 100 90 Q90 100 80 88 Q70 98 62 86 Z" fill="#ffffff" stroke="#c6d2ee" stroke-width="1.6" stroke-linejoin="round"/>
      <path d="M116 50 L97 36 Q89 50 97 64 Z" fill="#4a72d8" stroke="#1b3070" stroke-width="1.4" stroke-linejoin="round"/>
      <path d="M124 50 L143 36 Q151 50 143 64 Z" fill="#4a72d8" stroke="#1b3070" stroke-width="1.4" stroke-linejoin="round"/>
      <circle cx="120" cy="50" r="7" fill="#4a72d8" stroke="#1b3070" stroke-width="1.4"/>
    </svg>